<!DOCTYPE svg PUBLIC "-//W3C//DTD SVG 20010904//EN" "http://www.w3.org/TR/2001/REC-SVG-20010904/DTD/svg10.dtd">
<svg version="1.0" xmlns="http://www.w3.org/2000/svg" viewBox="0 0 3500 3500" preserveAspectRatio="xMidYMid meet">
<g id="layer101" fill="#00071c" stroke="none">
 <path d="M1880 3489 c-36 -4 -103 -12 -150 -17 -271 -32 -617 -136 -862 -258 -329 -165 -602 -393 -768 -641 -86 -129 -70 -172 100 -263 109 -59 128 -65 175 -56 27 5 44 20 82 69 164 217 341 361 601 492 203 102 450 180 689 217 138 21 143 22 163 3 20 -18 20 -25 20 -724 0 -652 1 -709 18 -741 27 -56 68 -70 200 -70 125 0 166 11 200 55 22 27 22 33 22 391 0 200 4 364 8 364 5 0 60 -9 123 -20 202 -37 402 -114 544 -209 98 -67 138 -55 269 78 83 85 86 90 86 134 0 25 -3 53 -7 62 -11 29 -155 129 -270 187 -191 98 -397 161 -632 194 l-121 17 0 303 c0 190 -4 313 -11 331 -14 38 -57 83 -96 99 -35 15 -264 17 -383 3z"/>
 <path d="M1420 2644 c-338 -114 -614 -323 -730 -555 -60 -119 -75 -183 -75 -324 1 -119 3 -137 32 -218 81 -228 249 -405 527 -553 170 -90 433 -171 646 -197 l105 -13 3 -133 c2 -96 -1 -137 -10 -148 -43 -53 -547 66 -813 191 -160 76 -181 67 -289 -122 -65 -114 -69 -150 -24 -200 42 -46 296 -157 496 -217 221 -66 425 -99 709 -116 217 -13 254 -10 307 32 59 46 61 56 66 399 l5 315 35 3 c117 11 333 56 450 95 209 68 438 191 509 273 25 28 31 44 31 81 0 46 -2 49 -103 150 -102 102 -104 103 -151 103 -38 0 -58 -7 -104 -39 -470 -318 -1336 -316 -1788 5 -176 124 -243 281 -181 418 61 133 225 258 447 341 42 16 87 40 103 57 27 28 27 29 27 174 0 164 -8 191 -64 218 -45 21 -44 21 -166 -20z"/>
 </g>

</svg>